<?xml version="1.0" standalone="no"?>
<!DOCTYPE svg PUBLIC "-//W3C//DTD SVG 20010904//EN"
 "http://www.w3.org/TR/2001/REC-SVG-20010904/DTD/svg10.dtd">
<svg version="1.0" xmlns="http://www.w3.org/2000/svg"
 width="7016.000000pt" height="4961.000000pt" viewBox="0 0 7016.000000 4961.000000"
 preserveAspectRatio="xMidYMid meet">

<g transform="translate(0.000000,4961.000000) scale(0.100000,-0.100000)"
fill="#000000" stroke="none">
<path d="M6111 33490 c-61 -22 -114 -56 -153 -98 -15 -15 -676 -947 -1469
-2072 -1205 -1707 -1447 -2056 -1466 -2110 -29 -82 -30 -194 -5 -277 14 -43
983 -1584 3851 -6118 2166 -3424 3851 -6079 3874 -6103 23 -24 71 -58 107 -75
62 -31 70 -32 185 -32 114 0 123 2 185 31 36 18 82 48 102 68 20 21 666 779
1434 1687 1098 1295 1401 1646 1410 1637 6 -7 638 -753 1404 -1658 765 -905
1406 -1658 1423 -1674 18 -15 61 -42 97 -60 62 -29 71 -31 185 -31 115 0 123
1 185 32 36 18 84 51 107 75 41 43 7656 12070 7696 12158 18 38 22 64 22 165
0 109 -2 125 -26 175 -31 66 -2864 4087 -2923 4148 -22 24 -70 57 -106 75 -61
30 -71 32 -175 32 -103 0 -114 -2 -178 -32 -42 -20 -85 -51 -113 -80 -30 -32
-629 -1009 -1766 -2883 -947 -1559 -1729 -2854 -1740 -2877 -85 -191 0 -416
192 -507 59 -28 74 -31 165 -31 91 0 106 3 165 31 36 17 84 50 107 73 28 28
567 907 1614 2632 1249 2057 1575 2587 1585 2577 13 -14 2322 -3289 2344
-3324 11 -19 -306 -525 -3589 -5715 -1981 -3132 -3605 -5695 -3610 -5697 -5
-2 -630 730 -1389 1625 -759 895 -1395 1642 -1413 1659 -105 95 -264 131 -400
91 -31 -9 -82 -36 -113 -59 -38 -30 -480 -544 -1442 -1681 -763 -901 -1390
-1636 -1395 -1635 -11 4 -7230 11419 -7227 11427 6 15 2371 3362 2373 3359 1
-2 710 -1168 1574 -2593 1390 -2291 1579 -2597 1631 -2646 70 -68 143 -99 245
-106 157 -11 310 84 377 233 31 70 37 200 11 274 -28 82 -3473 5752 -3532
5813 -26 27 -74 62 -111 80 -56 27 -78 31 -160 34 -76 3 -106 -1 -149 -17z"/>
<path d="M14040 33486 c-49 -14 -78 -27 -128 -60 -19 -11 -741 -855 -1605
-1874 -1139 -1342 -1581 -1870 -1606 -1918 -30 -56 -35 -76 -39 -152 -4 -103
17 -175 73 -252 130 -177 397 -211 558 -70 24 22 676 784 1447 1695 l1403
1656 28 -28 c14 -15 651 -765 1414 -1666 850 -1004 1404 -1651 1432 -1671 71
-52 135 -71 234 -71 78 0 91 3 161 38 88 43 146 102 187 187 23 49 26 67 26
161 0 102 -1 109 -35 173 -49 93 -3144 3746 -3210 3788 -102 65 -245 92 -340
64z"/>
<path d="M30167 31443 c-4 -3 -7 -2622 -7 -5820 l0 -5813 3727 2 3727 3 81
523 81 522 -3218 0 -3218 0 0 2270 0 2270 2935 0 2935 0 0 530 0 530 -2935 0
-2935 0 0 1965 0 1965 3080 0 3080 0 -2 528 -3 527 -3661 3 c-2013 1 -3664 -1
-3667 -5z"/>
<path d="M43357 31443 c-4 -3 -7 -2622 -7 -5820 l0 -5813 2288 0 c1454 0 2338
4 2427 10 724 53 1363 234 1885 533 257 147 455 299 670 516 506 508 790 1145
866 1941 20 207 14 658 -10 820 -54 358 -138 628 -286 919 -130 257 -287 471
-509 692 -337 336 -741 588 -1195 745 -83 29 -105 40 -90 45 10 5 73 29 139
54 452 174 841 490 1128 918 86 128 223 405 277 562 53 155 105 365 131 535
30 193 37 589 15 798 -125 1178 -862 2017 -2080 2366 -345 99 -695 154 -1126
176 -217 11 -4512 14 -4523 3z m4688 -1056 c329 -48 549 -111 791 -227 224
-107 377 -214 537 -376 364 -370 536 -881 497 -1475 -6 -90 -17 -207 -26 -259
-62 -388 -212 -690 -464 -933 -328 -317 -785 -493 -1495 -574 -134 -15 -320
-17 -1757 -20 l-1608 -4 0 1946 0 1946 1703 -4 c1546 -3 1713 -5 1822 -20z
m-405 -4917 c866 -59 1485 -266 1943 -650 302 -253 523 -622 620 -1035 52
-219 62 -318 62 -620 0 -373 -30 -571 -127 -855 -259 -753 -907 -1252 -1832
-1410 -323 -55 -267 -53 -2093 -57 l-1693 -4 0 2320 0 2321 1488 0 c880 0
1546 -4 1632 -10z"/>
<path d="M55634 31433 c4 -9 937 -1599 2074 -3533 1136 -1933 2075 -3539 2085
-3568 10 -30 22 -86 27 -125 6 -43 10 -957 10 -2234 l0 -2163 600 0 600 0 0
2168 c0 1385 4 2192 10 2236 6 38 19 87 29 110 10 23 981 1630 2159 3573 1178
1942 2142 3537 2142 3542 0 8 -197 11 -640 11 l-640 0 -43 -67 c-116 -182
-1249 -2083 -1887 -3168 -774 -1315 -1562 -2683 -1636 -2839 -10 -20 -20 -36
-23 -36 -3 0 -66 109 -140 241 -300 541 -991 1749 -2299 4019 -404 701 -809
1404 -899 1563 l-166 287 -685 0 c-641 0 -684 -1 -678 -17z"/>
</g>
</svg>
