<?xml version="1.0" standalone="no"?>
<!DOCTYPE svg PUBLIC "-//W3C//DTD SVG 20010904//EN"
 "http://www.w3.org/TR/2001/REC-SVG-20010904/DTD/svg10.dtd">
<svg version="1.0" xmlns="http://www.w3.org/2000/svg"
 width="4167.000000pt" height="4167.000000pt" viewBox="0 0 4167.000000 4167.000000"
 preserveAspectRatio="xMidYMid meet">

<g transform="translate(0.000000,4167.000000) scale(0.100000,-0.100000)"
fill="#000000" stroke="none">
<path d="M8045 34356 c-144 -33 -239 -88 -333 -192 -82 -90 -4626 -6531 -4663
-6609 -45 -95 -61 -176 -61 -305 0 -136 17 -214 71 -315 29 -56 11975 -18949
12206 -19305 78 -120 158 -199 255 -249 110 -57 183 -74 325 -74 182 0 309 42
428 141 31 27 1039 1208 2308 2705 2156 2545 2253 2658 2269 2640 10 -10 1027
-1210 2261 -2667 1728 -2041 2258 -2660 2304 -2694 124 -93 234 -126 410 -125
201 0 330 50 461 176 70 68 378 553 6180 9727 3359 5310 6117 9678 6130 9705
40 88 54 161 54 293 0 134 -14 210 -57 299 -34 73 -4600 6545 -4664 6612 -69
72 -156 126 -253 158 -112 36 -275 38 -386 4 -137 -42 -237 -106 -318 -205
-62 -75 -5544 -9109 -5579 -9194 -124 -302 6 -647 299 -791 250 -124 522 -79
718 119 72 72 179 246 2585 4212 1917 3160 2513 4134 2522 4125 25 -27 3773
-5347 3773 -5356 0 -8 -11511 -18218 -11534 -18248 -1 -1 -1005 1182 -2231
2629 -1717 2027 -2244 2642 -2290 2676 -113 84 -282 142 -416 142 -82 0 -204
-30 -288 -71 -35 -18 -92 -58 -128 -93 -35 -33 -1057 -1233 -2271 -2666 -1214
-1433 -2212 -2604 -2217 -2604 -6 1 -2612 4114 -5791 9140 l-5781 9139 31 45
c18 25 873 1237 1900 2693 1631 2311 1870 2646 1880 2630 7 -10 1142 -1879
2522 -4153 2337 -3851 2514 -4139 2579 -4205 243 -245 635 -245 880 0 197 197
240 493 106 739 -65 121 -5520 9098 -5557 9146 -75 97 -202 180 -330 214 -85
23 -236 29 -309 12z"/>
<path d="M20703 34340 c-118 -21 -246 -87 -328 -167 -81 -79 -5011 -5906
-5047 -5965 -65 -106 -83 -175 -83 -318 0 -105 4 -137 24 -199 51 -154 171
-291 316 -361 157 -76 315 -87 473 -34 103 34 174 79 253 161 37 37 1064 1246
2283 2686 1220 1439 2221 2617 2226 2617 4 0 1015 -1189 2247 -2642 1231
-1453 2256 -2660 2278 -2682 139 -136 354 -200 545 -162 301 61 510 312 510
612 0 99 -28 213 -72 296 -35 65 -4939 5865 -5052 5974 -77 74 -144 114 -262
153 -101 34 -224 46 -311 31z"/>
</g>
</svg>
