<svg viewBox="0 0 512 512" xmlns="http://www.w3.org/2000/svg">
  <!-- Background Circle -->
  <circle cx="256" cy="256" r="256" fill="url(#backgroundGradient)"/>
  
  <!-- Gradient Definitions -->
  <defs>
    <linearGradient id="backgroundGradient" x1="0%" y1="0%" x2="100%" y2="100%">
      <stop offset="0%" style="stop-color:#f76b1c;stop-opacity:1" />
      <stop offset="50%" style="stop-color:#ff8c42;stop-opacity:1" />
      <stop offset="100%" style="stop-color:#f76b1c;stop-opacity:1" />
    </linearGradient>
    
    <linearGradient id="dumbbellGradient" x1="0%" y1="0%" x2="100%" y2="100%">
      <stop offset="0%" style="stop-color:#ffffff;stop-opacity:1" />
      <stop offset="50%" style="stop-color:#f0f0f0;stop-opacity:1" />
      <stop offset="100%" style="stop-color:#e0e0e0;stop-opacity:1" />
    </linearGradient>
    
    <linearGradient id="shadowGradient" x1="0%" y1="0%" x2="100%" y2="100%">
      <stop offset="0%" style="stop-color:#000000;stop-opacity:0.2" />
      <stop offset="100%" style="stop-color:#000000;stop-opacity:0.1" />
    </linearGradient>
  </defs>
  
  <!-- Shadow -->
  <ellipse cx="260" cy="260" rx="180" ry="180" fill="url(#shadowGradient)" opacity="0.3"/>
  
  <!-- Dumbbell Design -->
  <!-- Left Weight -->
  <rect x="120" y="180" width="60" height="152" rx="30" fill="url(#dumbbellGradient)" stroke="#d0d0d0" stroke-width="2"/>
  <rect x="130" y="190" width="40" height="132" rx="20" fill="#ffffff" opacity="0.6"/>
  
  <!-- Right Weight -->
  <rect x="332" y="180" width="60" height="152" rx="30" fill="url(#dumbbellGradient)" stroke="#d0d0d0" stroke-width="2"/>
  <rect x="342" y="190" width="40" height="132" rx="20" fill="#ffffff" opacity="0.6"/>
  
  <!-- Center Bar -->
  <rect x="180" y="240" width="152" height="32" rx="16" fill="url(#dumbbellGradient)" stroke="#d0d0d0" stroke-width="2"/>
  <rect x="185" y="245" width="142" height="22" rx="11" fill="#ffffff" opacity="0.4"/>
  
  <!-- Grip Lines on Bar -->
  <rect x="220" y="248" width="2" height="16" fill="#d0d0d0" opacity="0.8"/>
  <rect x="230" y="248" width="2" height="16" fill="#d0d0d0" opacity="0.8"/>
  <rect x="240" y="248" width="2" height="16" fill="#d0d0d0" opacity="0.8"/>
  <rect x="250" y="248" width="2" height="16" fill="#d0d0d0" opacity="0.8"/>
  <rect x="260" y="248" width="2" height="16" fill="#d0d0d0" opacity="0.8"/>
  <rect x="270" y="248" width="2" height="16" fill="#d0d0d0" opacity="0.8"/>
  <rect x="280" y="248" width="2" height="16" fill="#d0d0d0" opacity="0.8"/>
  <rect x="290" y="248" width="2" height="16" fill="#d0d0d0" opacity="0.8"/>
  
  <!-- Fitness Ring/Circle Elements -->
  <circle cx="256" cy="130" r="20" fill="none" stroke="#ffffff" stroke-width="6" opacity="0.8"/>
  <circle cx="256" cy="130" r="15" fill="#ffffff" opacity="0.3"/>
  
  <!-- Progress Dots -->
  <circle cx="180" cy="100" r="8" fill="#ffffff" opacity="0.9"/>
  <circle cx="210" cy="85" r="6" fill="#ffffff" opacity="0.7"/>
  <circle cx="240" cy="80" r="4" fill="#ffffff" opacity="0.5"/>
  
  <circle cx="332" cy="100" r="8" fill="#ffffff" opacity="0.9"/>
  <circle cx="302" cy="85" r="6" fill="#ffffff" opacity="0.7"/>
  <circle cx="272" cy="80" r="4" fill="#ffffff" opacity="0.5"/>
  
  <!-- Bottom Accent -->
  <path d="M 200 380 Q 256 360 312 380" stroke="#ffffff" stroke-width="4" fill="none" opacity="0.6"/>
  <circle cx="256" cy="390" r="12" fill="#ffffff" opacity="0.4"/>
  
  <!-- Highlight Effects -->
  <ellipse cx="200" cy="180" rx="25" ry="60" fill="#ffffff" opacity="0.2"/>
  <ellipse cx="350" cy="180" rx="25" ry="60" fill="#ffffff" opacity="0.2"/>
</svg>